<svg xmlns="http://www.w3.org/2000/svg" xmlns:xlink="http://www.w3.org/1999/xlink" width="350" zoomAndPan="magnify" viewBox="0 0 262.5 262.500001" height="350" preserveAspectRatio="xMidYMid meet" version="1.0"><defs><g/></defs><g fill="#000000" fill-opacity="1"><g transform="translate(0, 61.171828)"><g><path d="M 28.824219 -34.15625 L 29.023438 -33.957031 C 29.21875 -34.089844 29.546875 -34.351562 30.007812 -34.683594 C 30.402344 -35.011719 30.734375 -35.339844 30.929688 -35.734375 C 31.71875 -37.050781 32.179688 -38.234375 32.445312 -39.421875 C 32.511719 -40.078125 32.574219 -40.605469 32.574219 -41 C 32.574219 -42.84375 31.984375 -44.421875 30.863281 -45.738281 C 29.746094 -47.054688 28.167969 -47.777344 26.125 -47.84375 C 22.308594 -47.84375 19.414062 -47.777344 17.570312 -47.777344 C 15.53125 -47.710938 13.558594 -46.921875 11.648438 -45.34375 C 10.070312 -43.960938 8.820312 -42.316406 7.898438 -40.40625 C 5.066406 -34.8125 3.554688 -28.5625 3.355469 -21.71875 C 3.289062 -21.191406 3.289062 -20.46875 3.289062 -19.546875 C 3.289062 -14.542969 4.210938 -10.132812 6.121094 -6.25 C 8.027344 -2.238281 10.859375 -0.199219 14.675781 -0.0664062 C 16.253906 0 18.625 0 21.78125 0 C 23.097656 0 24.21875 -0.328125 25.140625 -1.054688 C 26.0625 -1.710938 26.980469 -2.699219 27.835938 -4.015625 C 28.691406 -5.394531 29.351562 -7.371094 29.878906 -9.871094 C 30.207031 -11.847656 30.667969 -14.9375 31.324219 -19.085938 C 31.390625 -19.347656 31.457031 -19.546875 31.589844 -19.675781 C 31.71875 -19.808594 31.917969 -19.875 32.179688 -19.875 C 33.367188 -19.875 34.285156 -19.875 34.945312 -19.941406 C 36.0625 -20.007812 37.117188 -20.136719 38.167969 -20.335938 C 38.761719 -20.46875 39.089844 -20.863281 39.089844 -21.519531 L 39.089844 -21.847656 C 39.023438 -22.179688 38.894531 -22.375 38.761719 -22.507812 C 38.566406 -22.574219 38.300781 -22.636719 37.972656 -22.636719 L 33.035156 -22.507812 C 30.601562 -22.507812 28.167969 -22.441406 25.664062 -22.308594 C 23.953125 -22.242188 22.242188 -22.113281 20.46875 -21.914062 L 18.886719 -21.78125 C 18.097656 -21.652344 17.769531 -21.324219 17.769531 -20.730469 L 17.769531 -20.597656 C 17.769531 -20.203125 17.835938 -20.007812 18.03125 -19.875 C 18.230469 -19.742188 18.558594 -19.742188 18.953125 -19.742188 L 25.269531 -19.675781 C 25.402344 -19.613281 25.730469 -19.613281 26.125 -19.613281 C 26.125 -19.347656 26.0625 -19.152344 26.0625 -19.019531 C 25.007812 -14.28125 24.21875 -10.992188 23.757812 -9.015625 C 23.035156 -6.25 21.71875 -4.144531 19.742188 -2.765625 C 19.480469 -2.566406 19.28125 -2.5 19.085938 -2.5 C 18.953125 -2.5 18.691406 -2.566406 18.425781 -2.828125 C 17.503906 -3.554688 16.847656 -4.410156 16.386719 -5.394531 C 15.859375 -6.382812 15.464844 -7.566406 15.070312 -8.949219 C 14.28125 -11.976562 13.886719 -15.003906 13.886719 -18.164062 C 13.886719 -19.414062 13.953125 -20.664062 14.082031 -21.914062 C 14.609375 -28.5625 16.058594 -34.285156 18.425781 -39.023438 C 19.480469 -41.132812 20.664062 -42.777344 22.046875 -43.960938 C 22.179688 -44.09375 22.375 -44.222656 22.636719 -44.222656 C 22.835938 -44.222656 23.035156 -44.09375 23.230469 -43.960938 C 24.808594 -42.644531 25.730469 -41.261719 26.0625 -39.683594 C 26.191406 -38.894531 26.390625 -37.710938 26.585938 -36.128906 C 26.652344 -35.734375 26.71875 -35.140625 26.851562 -34.351562 C 26.917969 -34.222656 27.046875 -34.15625 27.179688 -34.089844 C 27.3125 -34.023438 27.441406 -33.957031 27.640625 -33.828125 L 28.824219 -34.878906 Z M 28.824219 -34.15625 "/></g></g></g><g fill="#000000" fill-opacity="1"><g transform="translate(42.377262, 61.171828)"><g><path d="M 15.925781 -46.921875 C 15.925781 -46.988281 15.992188 -47.121094 15.992188 -47.382812 C 15.992188 -47.515625 16.058594 -47.777344 16.058594 -48.042969 C 16.058594 -48.238281 15.925781 -48.371094 15.792969 -48.5 C 15.664062 -48.566406 15.398438 -48.632812 15.003906 -48.632812 L 13.621094 -48.632812 C 12.503906 -48.632812 11.714844 -48.566406 11.320312 -48.5 C 10.859375 -48.371094 10.53125 -48.171875 10.332031 -47.777344 C 10.070312 -47.382812 9.871094 -46.660156 9.609375 -45.671875 C 8.6875 -42.117188 7.898438 -38.433594 7.238281 -34.683594 C 5.132812 -23.558594 3.816406 -14.148438 3.355469 -6.449219 C 3.289062 -5.265625 3.289062 -3.421875 3.289062 -1.054688 C 3.289062 -0.328125 3.554688 0 4.210938 0 L 6.121094 0 C 6.515625 0 7.042969 0 7.699219 0 C 8.359375 0 9.082031 0 9.9375 0 C 10.792969 0 11.253906 -0.394531 11.320312 -1.25 L 11.976562 -7.964844 C 11.976562 -8.292969 12.109375 -8.488281 12.242188 -8.621094 C 12.371094 -8.753906 12.570312 -8.820312 12.898438 -8.820312 L 26.324219 -8.09375 C 26.457031 -8.09375 26.519531 -8.027344 26.652344 -7.964844 C 26.71875 -7.898438 26.785156 -7.832031 26.851562 -7.832031 C 26.851562 -7.566406 26.980469 -7.109375 27.113281 -6.382812 C 27.246094 -5.660156 27.246094 -5 27.246094 -4.34375 C 27.179688 -3.683594 27.246094 -3.226562 27.507812 -2.960938 C 27.707031 -2.632812 28.101562 -2.5 28.757812 -2.5 L 34.222656 -2.5 C 35.207031 -2.5 35.867188 -2.566406 36.195312 -2.699219 C 36.523438 -2.828125 36.722656 -3.160156 36.789062 -3.554688 C 36.789062 -3.949219 36.855469 -4.9375 36.855469 -6.515625 C 36.855469 -10.199219 36.195312 -14.808594 34.945312 -20.335938 C 33.890625 -24.808594 33.035156 -28.363281 32.246094 -31.0625 C 31.457031 -33.695312 30.46875 -36.394531 29.285156 -39.023438 C 28.5625 -40.472656 27.902344 -41.65625 27.3125 -42.578125 C 26.71875 -43.5 26.0625 -44.421875 25.269531 -45.210938 C 24.019531 -46.332031 22.703125 -46.921875 21.324219 -46.921875 Z M 15.925781 -46.921875 "/></g></g></g><g fill="#000000" fill-opacity="1"><g transform="translate(82.583009, 61.171828)"><g><path d="M 32.90625 -26.980469 L 33.035156 -26.980469 C 33.035156 -26.652344 33.035156 -26.390625 33.101562 -26.257812 L 33.957031 -4.871094 C 33.957031 -4.34375 34.023438 -3.949219 34.222656 -3.554688 C 34.351562 -3.160156 34.617188 -2.699219 34.878906 -2.238281 C 35.140625 -1.710938 35.40625 -1.316406 35.601562 -0.988281 C 35.667969 -0.855469 35.867188 -0.789062 36.261719 -0.789062 C 36.722656 -0.722656 37.445312 -0.722656 38.367188 -0.722656 C 38.894531 -0.722656 39.355469 -0.722656 39.683594 -0.855469 C 40.011719 -0.988281 40.339844 -1.25 40.671875 -1.777344 C 41.460938 -2.894531 41.921875 -4.144531 41.988281 -5.527344 C 42.050781 -7.898438 42.117188 -9.675781 42.25 -10.992188 C 42.578125 -18.425781 42.777344 -24.152344 42.90625 -28.167969 C 42.972656 -33.035156 42.578125 -37.183594 41.789062 -40.671875 C 41.59375 -41.394531 41.328125 -41.921875 41 -42.183594 C 40.671875 -42.449219 40.144531 -42.578125 39.355469 -42.644531 L 37.90625 -42.644531 C 37.511719 -42.644531 37.117188 -42.578125 36.65625 -42.578125 C 36.128906 -42.578125 35.601562 -42.578125 34.945312 -42.644531 C 34.15625 -42.644531 33.628906 -42.25 33.429688 -41.460938 C 33.300781 -40.933594 33.167969 -40.539062 32.90625 -40.40625 C 32.246094 -39.878906 31.65625 -39.023438 31.128906 -37.773438 C 29.878906 -34.683594 28.824219 -31.457031 27.96875 -28.167969 C 27.113281 -24.875 26.324219 -21.191406 25.664062 -17.175781 C 25.535156 -16.519531 25.402344 -15.464844 25.140625 -14.082031 C 24.875 -14.609375 24.679688 -15.136719 24.546875 -15.597656 C 24.414062 -15.992188 24.285156 -16.386719 24.152344 -16.714844 C 24.019531 -17.175781 23.757812 -17.835938 23.429688 -18.753906 L 14.347656 -40.339844 C 14.015625 -41.066406 13.425781 -41.460938 12.636719 -41.460938 L 8.621094 -41.394531 L 4.605469 -41.460938 C 3.816406 -41.460938 3.421875 -41.066406 3.421875 -40.40625 C 3.289062 -39.878906 3.289062 -39.484375 3.289062 -39.222656 C 3.355469 -31.984375 3.488281 -25.664062 3.683594 -20.402344 C 3.882812 -15.070312 4.277344 -9.804688 4.804688 -4.671875 C 5 -2.699219 5.265625 -0.921875 5.660156 0.527344 C 5.726562 0.789062 5.855469 1.117188 6.121094 1.382812 C 6.382812 1.644531 6.582031 1.84375 6.84375 1.84375 C 7.503906 1.910156 8.488281 1.910156 9.871094 1.910156 L 12.898438 1.910156 C 13.753906 1.910156 14.214844 1.449219 14.347656 0.394531 C 14.414062 0.0664062 14.476562 -0.199219 14.476562 -0.394531 L 15.269531 -21.519531 C 15.269531 -22.308594 15.269531 -22.96875 15.269531 -23.558594 C 15.269531 -24.152344 15.269531 -24.679688 15.269531 -25.074219 L 15.597656 -25.074219 L 16.453125 -23.296875 L 19.019531 -17.042969 L 22.636719 -8.226562 L 23.230469 -6.84375 C 23.625 -5.988281 23.890625 -5.265625 24.085938 -4.605469 C 24.285156 -3.949219 24.351562 -3.289062 24.351562 -2.632812 C 24.351562 -2.5 24.351562 -2.371094 24.414062 -2.238281 C 24.480469 -2.105469 24.546875 -2.039062 24.679688 -2.039062 C 25.601562 -1.84375 26.390625 -1.777344 26.917969 -1.777344 C 27.441406 -1.84375 27.773438 -2.238281 27.902344 -2.894531 C 27.902344 -3.289062 28.035156 -3.949219 28.234375 -5 C 29.285156 -10.132812 30.140625 -14.414062 30.863281 -17.703125 Z M 32.90625 -26.980469 "/></g></g></g><g fill="#000000" fill-opacity="1"><g transform="translate(128.776859, 61.171828)"><g><path d="M 21.386719 -44.554688 L 12.175781 -44.554688 C 10.992188 -44.289062 9.476562 -43.960938 7.699219 -43.699219 C 6.84375 -43.566406 6.316406 -43.039062 6.054688 -42.183594 C 5.527344 -40.144531 5.265625 -38.828125 5.199219 -38.167969 C 4.277344 -30.007812 3.75 -23.890625 3.488281 -19.875 C 3.355469 -17.964844 3.289062 -16.058594 3.289062 -14.148438 C 3.289062 -13.097656 3.289062 -11.449219 3.421875 -9.277344 C 3.554688 -7.109375 4.144531 -5.460938 5.132812 -4.277344 C 6.121094 -3.09375 7.566406 -2.304688 9.542969 -1.910156 C 10.332031 -1.777344 11.121094 -1.710938 11.910156 -1.710938 C 12.964844 -1.644531 14.542969 -1.644531 16.648438 -1.644531 C 18.164062 -1.644531 19.28125 -1.644531 20.070312 -1.710938 C 21.257812 -1.710938 23.035156 -1.972656 25.535156 -2.433594 C 25.929688 -2.5 26.324219 -2.699219 26.585938 -3.027344 C 26.851562 -3.289062 26.980469 -3.621094 26.980469 -4.015625 C 26.980469 -4.539062 26.785156 -4.871094 26.519531 -5 C 26.191406 -5.132812 25.730469 -5.265625 25.140625 -5.332031 C 24.546875 -5.332031 24.019531 -5.332031 23.625 -5.332031 C 23.230469 -5.332031 22.835938 -5.332031 22.574219 -5.332031 L 21.257812 -5.332031 C 20.597656 -5.332031 20.070312 -5.199219 19.675781 -5.066406 C 19.28125 -4.871094 18.886719 -4.804688 18.359375 -4.804688 C 17.441406 -4.804688 16.78125 -5.066406 16.386719 -5.660156 C 15.398438 -6.84375 14.871094 -7.898438 14.808594 -8.820312 C 14.542969 -11.1875 14.28125 -14.808594 14.148438 -19.675781 C 14.148438 -19.742188 14.214844 -19.875 14.347656 -20.007812 C 14.476562 -20.136719 14.675781 -20.203125 14.808594 -20.203125 C 15.859375 -20.335938 16.78125 -20.402344 17.570312 -20.46875 C 18.359375 -20.46875 19.019531 -20.53125 19.546875 -20.597656 L 21.914062 -20.796875 C 22.308594 -20.796875 22.574219 -20.925781 22.769531 -21.058594 C 22.902344 -21.191406 23.035156 -21.453125 23.035156 -21.914062 C 23.035156 -22.507812 22.703125 -22.902344 22.179688 -23.035156 L 20.597656 -23.296875 L 14.9375 -23.296875 C 14.542969 -23.296875 14.28125 -23.363281 14.148438 -23.558594 C 14.015625 -23.691406 13.886719 -24.019531 13.886719 -24.480469 C 13.425781 -31.457031 13.097656 -36.917969 12.832031 -40.800781 C 12.703125 -41.460938 12.964844 -41.855469 13.558594 -41.855469 L 13.753906 -41.855469 C 14.148438 -41.855469 14.542969 -41.855469 14.9375 -41.921875 C 15.332031 -41.921875 15.792969 -41.988281 16.1875 -41.988281 C 17.175781 -41.988281 17.964844 -41.65625 18.625 -41.132812 L 18.886719 -41.132812 L 22.636719 -41.066406 C 23.429688 -41.066406 24.085938 -41.066406 24.546875 -41.132812 C 25.140625 -41.132812 25.730469 -41.460938 26.390625 -42.183594 C 26.519531 -42.316406 26.652344 -42.511719 26.652344 -42.777344 C 26.652344 -43.039062 26.519531 -43.304688 26.257812 -43.566406 C 25.996094 -43.828125 25.664062 -44.027344 25.269531 -44.09375 C 24.414062 -44.222656 23.097656 -44.355469 21.386719 -44.554688 Z M 21.386719 -44.554688 "/></g></g></g><g fill="#000000" fill-opacity="1"><g transform="translate(159.04632, 61.171828)"><g><path d="M 24.085938 -26.257812 C 24.613281 -26.519531 25.007812 -26.785156 25.402344 -27.046875 C 26.71875 -27.902344 27.773438 -28.890625 28.628906 -29.945312 C 29.484375 -30.996094 30.074219 -32.179688 30.46875 -33.628906 C 30.601562 -34.285156 30.734375 -35.011719 30.734375 -35.800781 C 30.734375 -37.644531 30.207031 -39.484375 29.152344 -41.261719 C 28.101562 -42.972656 26.785156 -44.421875 25.074219 -45.476562 C 21.914062 -47.316406 18.820312 -48.238281 15.664062 -48.238281 L 12.4375 -48.238281 C 8.882812 -48.238281 6.25 -48.171875 4.539062 -48.171875 C 4.144531 -48.171875 3.882812 -48.105469 3.621094 -47.976562 C 3.355469 -47.84375 3.289062 -47.644531 3.289062 -47.316406 C 3.289062 -46.855469 3.554688 -46.660156 4.082031 -46.660156 L 4.605469 -46.660156 C 5.066406 -46.59375 5.527344 -46.59375 5.921875 -46.59375 C 6.316406 -46.59375 6.648438 -46.660156 6.910156 -46.660156 L 6.1875 -41.132812 C 5.527344 -35.933594 5.199219 -30.734375 5.199219 -25.535156 C 5.199219 -19.941406 5.527344 -14.214844 6.316406 -8.359375 C 6.515625 -6.25 7.304688 -4.476562 8.753906 -3.09375 C 7.964844 -2.960938 6.648438 -2.765625 4.804688 -2.632812 C 4.015625 -2.566406 3.621094 -2.105469 3.621094 -1.183594 C 3.621094 -0.789062 3.683594 -0.460938 3.882812 -0.328125 C 4.082031 -0.132812 4.410156 0 4.871094 0 L 8.359375 0 C 10.265625 0 11.976562 -0.0664062 13.492188 -0.199219 C 14.9375 -0.328125 16.386719 -0.65625 17.835938 -1.183594 C 18.097656 -1.25 18.492188 -1.316406 18.953125 -1.449219 C 19.347656 -1.511719 19.742188 -1.578125 20.070312 -1.710938 L 21.652344 -2.105469 C 23.691406 -2.632812 25.269531 -3.160156 26.457031 -3.554688 C 27.574219 -3.949219 28.691406 -4.476562 29.878906 -5.132812 C 32.3125 -6.582031 33.5625 -8.820312 33.5625 -11.847656 C 33.5625 -14.742188 32.640625 -17.441406 30.929688 -19.808594 C 29.21875 -22.179688 27.179688 -23.890625 24.941406 -24.875 C 24.679688 -24.941406 24.019531 -25.207031 22.835938 -25.601562 C 23.164062 -25.730469 23.558594 -25.996094 24.085938 -26.257812 Z M 17.570312 -30.863281 L 17.570312 -41.722656 C 19.152344 -39.878906 19.941406 -37.972656 19.941406 -35.933594 C 19.941406 -34.945312 19.742188 -34.023438 19.347656 -33.167969 C 18.953125 -32.246094 18.359375 -31.523438 17.570312 -30.863281 Z M 18.820312 -6.710938 C 18.296875 -14.015625 17.898438 -19.347656 17.703125 -22.636719 L 18.097656 -22.441406 C 19.742188 -20.992188 20.992188 -19.414062 21.914062 -17.835938 C 22.769531 -16.1875 23.230469 -14.347656 23.230469 -12.371094 C 23.230469 -11.054688 22.769531 -9.871094 21.980469 -8.820312 C 21.191406 -7.765625 20.136719 -7.042969 18.820312 -6.710938 Z M 18.820312 -6.710938 "/></g></g></g><g fill="#000000" fill-opacity="1"><g transform="translate(195.896107, 61.171828)"><g><path d="M 15.464844 -0.199219 C 16.1875 -0.328125 17.175781 -0.460938 18.492188 -0.65625 C 18.753906 -0.65625 19.152344 -0.722656 19.613281 -0.855469 C 20.070312 -0.921875 20.597656 -0.988281 21.191406 -1.054688 C 24.21875 -1.183594 26.519531 -2.828125 28.035156 -5.921875 C 28.757812 -7.503906 29.351562 -9.148438 29.8125 -10.859375 C 31.128906 -15.597656 31.851562 -20.070312 31.851562 -24.21875 C 31.851562 -27.046875 31.457031 -29.878906 30.800781 -32.640625 C 30.339844 -34.222656 29.8125 -35.667969 29.285156 -36.984375 C 28.691406 -38.234375 27.96875 -39.355469 27.046875 -40.40625 C 25.664062 -41.988281 24.085938 -42.84375 22.242188 -42.84375 C 21.914062 -42.84375 21.453125 -42.777344 20.863281 -42.710938 C 20.070312 -42.511719 19.214844 -42.382812 18.296875 -42.25 C 17.375 -42.117188 16.714844 -42.050781 16.386719 -42.050781 C 16.253906 -42.050781 16.125 -42.050781 15.992188 -42.183594 C 15.859375 -42.316406 15.730469 -42.382812 15.664062 -42.449219 C 15.53125 -42.449219 15.464844 -42.511719 15.332031 -42.644531 C 15.203125 -42.777344 15.070312 -42.84375 14.9375 -42.84375 L 14.871094 -42.84375 C 14.675781 -42.84375 13.6875 -42.710938 11.976562 -42.449219 L 10.660156 -42.25 C 9.34375 -42.117188 8.359375 -41.460938 7.765625 -40.339844 L 7.109375 -38.960938 C 6.976562 -38.761719 6.710938 -38.167969 6.25 -37.183594 C 5.726562 -36.195312 5.394531 -35.207031 5.199219 -34.285156 C 3.882812 -29.417969 3.289062 -24.546875 3.289062 -19.808594 C 3.289062 -17.769531 3.355469 -15.992188 3.554688 -14.414062 C 3.882812 -10.464844 5.066406 -6.976562 7.042969 -3.949219 C 8.753906 -1.316406 10.925781 0 13.558594 0 C 14.148438 0 14.808594 -0.0664062 15.464844 -0.199219 Z M 15.464844 -0.199219 "/></g></g></g><g fill="#000000" fill-opacity="1"><g transform="translate(231.10082, 61.171828)"><g><path d="M 16.1875 -8.226562 C 16.453125 -7.832031 16.585938 -7.566406 16.648438 -7.4375 L 18.03125 -5.066406 L 20.402344 -1.25 C 20.46875 -1.054688 20.597656 -0.921875 20.863281 -0.789062 C 21.058594 -0.65625 21.257812 -0.527344 21.453125 -0.527344 C 21.71875 -0.460938 22.113281 -0.460938 22.636719 -0.460938 L 23.757812 -0.460938 C 24.152344 -0.460938 24.351562 -0.527344 24.351562 -0.789062 C 24.351562 -0.921875 24.285156 -1.054688 24.152344 -1.25 C 24.019531 -1.382812 23.824219 -1.644531 23.691406 -1.910156 C 23.492188 -2.171875 23.296875 -2.433594 23.164062 -2.828125 L 21.78125 -5.921875 L 19.28125 -11.253906 C 18.886719 -12.109375 18.691406 -12.765625 18.691406 -13.292969 C 18.691406 -13.820312 18.886719 -14.414062 19.28125 -15.003906 C 19.28125 -15.070312 19.414062 -15.269531 19.546875 -15.664062 C 20.863281 -18.425781 22.046875 -21.324219 23.097656 -24.351562 C 24.152344 -27.3125 25.402344 -30.863281 26.71875 -34.945312 C 27.046875 -36.0625 27.3125 -37.378906 27.574219 -38.960938 C 27.640625 -39.289062 27.574219 -39.550781 27.441406 -39.816406 C 27.246094 -40.078125 26.980469 -40.210938 26.585938 -40.210938 L 20.203125 -40.144531 C 19.546875 -40.144531 19.085938 -40.011719 18.691406 -39.75 C 18.296875 -39.484375 18.03125 -39.023438 17.835938 -38.5 L 13.03125 -26.851562 C 12.964844 -26.71875 12.898438 -26.652344 12.832031 -26.519531 C 12.765625 -26.390625 12.703125 -26.324219 12.703125 -26.257812 L 12.4375 -26.785156 L 11.320312 -29.417969 C 10.59375 -30.996094 9.609375 -33.429688 8.292969 -36.722656 C 8.027344 -37.25 7.832031 -37.644531 7.566406 -37.773438 C 7.304688 -37.90625 6.910156 -38.039062 6.316406 -38.039062 L 5.132812 -37.972656 C 4.671875 -37.90625 4.476562 -37.710938 4.476562 -37.3125 L 4.476562 -37.117188 L 4.671875 -36.261719 C 5.066406 -35.140625 5.460938 -34.15625 5.792969 -33.234375 L 10.070312 -21.980469 C 10.199219 -21.585938 10.332031 -21.191406 10.332031 -20.796875 C 10.332031 -20.402344 10.199219 -20.007812 10.003906 -19.480469 C 9.015625 -17.175781 8.292969 -15.464844 7.898438 -14.347656 L 4.277344 -5.527344 C 4.015625 -4.871094 3.75 -4.144531 3.621094 -3.289062 C 3.488281 -2.371094 3.355469 -1.777344 3.355469 -1.449219 C 3.160156 -0.527344 3.421875 -0.132812 4.082031 -0.132812 L 11.1875 -0.132812 C 11.320312 -0.132812 11.449219 -0.132812 11.648438 -0.261719 C 11.78125 -0.328125 11.910156 -0.460938 11.976562 -0.59375 C 12.898438 -1.910156 13.6875 -3.226562 14.347656 -4.410156 C 14.609375 -4.9375 15.070312 -5.792969 15.597656 -6.976562 Z M 16.1875 -8.226562 "/></g></g></g></svg>