<svg xmlns="http://www.w3.org/2000/svg" xmlns:xlink="http://www.w3.org/1999/xlink" width="350" zoomAndPan="magnify" viewBox="0 0 262.5 262.500001" height="350" preserveAspectRatio="xMidYMid meet" version="1.0"><defs><g/></defs><g fill="#000000" fill-opacity="1"><g transform="translate(11.039048, 38.554734)"><g><path d="M 22.15625 -20.964844 L 22.246094 -20.964844 L 22.246094 -20.390625 C 22.507812 -12.492188 22.730469 -6.664062 22.863281 -2.957031 C 22.863281 -2.558594 22.90625 -2.207031 22.996094 -1.898438 C 23.082031 -1.542969 23.261719 -1.191406 23.523438 -0.792969 C 23.65625 -0.53125 23.789062 -0.175781 23.964844 0.175781 C 23.964844 0.265625 24.054688 0.308594 24.144531 0.308594 C 24.230469 0.351562 24.320312 0.351562 24.40625 0.351562 L 25.820312 0.351562 C 26.21875 0.351562 26.527344 0.308594 26.746094 0.21875 C 26.96875 0.132812 27.1875 -0.0898438 27.410156 -0.484375 C 27.9375 -1.414062 28.203125 -2.425781 28.246094 -3.53125 C 28.511719 -10.328125 28.734375 -16.464844 28.867188 -21.9375 L 28.867188 -23.570312 C 28.867188 -26.746094 28.601562 -29.570312 28.160156 -32.085938 C 28.027344 -32.707031 27.851562 -33.148438 27.628906 -33.367188 C 27.363281 -33.542969 27.011719 -33.675781 26.480469 -33.71875 L 25.511719 -33.71875 C 25.246094 -33.71875 24.980469 -33.675781 24.671875 -33.675781 C 24.320312 -33.675781 23.964844 -33.675781 23.523438 -33.71875 C 22.949219 -33.71875 22.597656 -33.367188 22.507812 -32.75 C 22.421875 -32.308594 22.332031 -32.042969 22.15625 -31.867188 C 21.671875 -31.425781 21.273438 -30.71875 20.964844 -29.75 C 19.464844 -25.246094 18.226562 -19.640625 17.300781 -13.019531 L 16.90625 -10.503906 C 16.726562 -10.902344 16.550781 -11.519531 16.332031 -12.359375 C 16.066406 -13.242188 15.890625 -13.859375 15.757812 -14.300781 L 9.621094 -31.824219 C 9.402344 -32.441406 9.003906 -32.75 8.472656 -32.75 L 5.78125 -32.707031 L 3.089844 -32.75 C 2.605469 -32.75 2.339844 -32.441406 2.296875 -31.910156 C 2.207031 -31.46875 2.207031 -31.160156 2.207031 -30.941406 C 2.25 -25.027344 2.339844 -19.90625 2.472656 -15.582031 C 2.605469 -11.253906 2.867188 -7.019531 3.222656 -2.867188 C 3.355469 -1.28125 3.53125 0.175781 3.796875 1.414062 C 3.839844 1.632812 3.929688 1.855469 4.105469 2.074219 C 4.28125 2.339844 4.414062 2.425781 4.589844 2.425781 C 5.121094 2.515625 5.957031 2.515625 7.019531 2.515625 L 8.652344 2.515625 C 8.960938 2.515625 9.179688 2.425781 9.355469 2.207031 C 9.488281 2.03125 9.578125 1.722656 9.664062 1.324219 L 9.710938 0.617188 C 9.84375 -3.179688 10.019531 -8.871094 10.285156 -16.550781 C 10.285156 -16.949219 10.285156 -17.300781 10.285156 -17.609375 C 10.285156 -17.917969 10.285156 -18.183594 10.285156 -18.449219 L 10.285156 -19.421875 L 10.503906 -19.421875 L 11.078125 -17.964844 L 12.84375 -12.753906 L 15.226562 -5.738281 C 15.269531 -5.5625 15.316406 -5.429688 15.359375 -5.253906 C 15.402344 -5.074219 15.492188 -4.898438 15.582031 -4.722656 C 15.84375 -3.839844 16.066406 -3.179688 16.199219 -2.691406 C 16.332031 -2.207031 16.375 -1.675781 16.375 -1.148438 C 16.375 -1.058594 16.375 -0.972656 16.417969 -0.882812 C 16.464844 -0.792969 16.507812 -0.707031 16.59375 -0.707031 C 17.390625 -0.53125 17.875 -0.484375 18.097656 -0.484375 C 18.273438 -0.484375 18.40625 -0.574219 18.539062 -0.75 C 18.625 -0.925781 18.714844 -1.101562 18.757812 -1.367188 C 18.757812 -1.855469 18.847656 -2.425781 18.980469 -3.089844 L 20.746094 -13.460938 L 20.964844 -14.519531 Z M 22.15625 -20.964844 "/></g></g></g><g fill="#000000" fill-opacity="1"><g transform="translate(41.228491, 38.554734)"><g><path d="M 10.679688 -31.46875 C 10.679688 -31.511719 10.726562 -31.601562 10.726562 -31.777344 C 10.726562 -31.867188 10.769531 -32.042969 10.769531 -32.21875 C 10.769531 -32.351562 10.679688 -32.441406 10.59375 -32.527344 C 10.503906 -32.574219 10.328125 -32.617188 10.0625 -32.617188 L 9.136719 -32.617188 C 8.386719 -32.617188 7.855469 -32.574219 7.589844 -32.527344 C 7.28125 -32.441406 7.0625 -32.308594 6.929688 -32.042969 C 6.753906 -31.777344 6.621094 -31.292969 6.445312 -30.632812 C 5.824219 -28.246094 5.296875 -25.777344 4.855469 -23.261719 C 3.441406 -15.800781 2.558594 -9.488281 2.25 -4.324219 C 2.207031 -3.53125 2.207031 -2.296875 2.207031 -0.707031 C 2.207031 -0.21875 2.382812 0 2.824219 0 L 4.105469 0 C 4.371094 0 4.722656 0 5.164062 0 C 5.605469 0 6.089844 0 6.664062 0 C 7.238281 0 7.546875 -0.265625 7.589844 -0.839844 L 8.03125 -5.339844 C 8.03125 -5.5625 8.121094 -5.695312 8.210938 -5.78125 C 8.296875 -5.871094 8.429688 -5.914062 8.652344 -5.914062 L 17.65625 -5.429688 C 17.742188 -5.429688 17.785156 -5.382812 17.875 -5.339844 C 17.917969 -5.296875 17.964844 -5.253906 18.007812 -5.253906 C 18.007812 -5.074219 18.097656 -4.765625 18.183594 -4.28125 C 18.273438 -3.796875 18.273438 -3.355469 18.273438 -2.914062 C 18.226562 -2.472656 18.273438 -2.164062 18.449219 -1.984375 C 18.582031 -1.765625 18.847656 -1.675781 19.289062 -1.675781 L 22.949219 -1.675781 C 23.613281 -1.675781 24.054688 -1.722656 24.273438 -1.808594 C 24.496094 -1.898438 24.628906 -2.117188 24.671875 -2.382812 C 24.671875 -2.648438 24.714844 -3.308594 24.714844 -4.371094 C 24.714844 -6.839844 24.273438 -9.929688 23.4375 -13.636719 C 22.730469 -16.640625 22.15625 -19.023438 21.628906 -20.832031 C 21.097656 -22.597656 20.433594 -24.40625 19.640625 -26.171875 C 19.15625 -27.144531 18.714844 -27.9375 18.316406 -28.554688 C 17.917969 -29.175781 17.476562 -29.792969 16.949219 -30.320312 C 16.109375 -31.070312 15.226562 -31.46875 14.300781 -31.46875 Z M 10.679688 -31.46875 "/></g></g></g><g fill="#000000" fill-opacity="1"><g transform="translate(67.313236, 38.554734)"><g><path d="M 7.0625 -3.972656 C 4.941406 -3.089844 3.53125 -2.515625 2.78125 -2.25 C 2.558594 -2.164062 2.425781 -2.074219 2.339844 -1.984375 C 2.25 -1.898438 2.207031 -1.722656 2.207031 -1.457031 C 2.207031 -0.839844 2.382812 -0.53125 2.824219 -0.53125 L 4.765625 -0.53125 L 6.179688 -0.484375 C 7.589844 -0.484375 8.785156 -0.707031 9.796875 -1.148438 C 10.195312 -1.324219 10.859375 -1.589844 11.742188 -1.898438 C 13.328125 -2.515625 14.742188 -3.179688 15.976562 -3.882812 C 17.214844 -4.589844 18.40625 -5.472656 19.464844 -6.578125 C 22.6875 -9.886719 24.320312 -13.902344 24.320312 -18.667969 C 24.320312 -21.140625 23.878906 -23.480469 23.082031 -25.644531 C 22.289062 -27.761719 21.097656 -29.527344 19.597656 -30.941406 C 18.050781 -32.308594 16.242188 -33.101562 14.167969 -33.367188 C 13.066406 -33.457031 11.828125 -33.542969 10.417969 -33.542969 L 6.621094 -33.5 C 6.265625 -33.5 5.914062 -33.410156 5.5625 -33.277344 C 5.207031 -33.101562 4.988281 -33.015625 4.898438 -33.015625 C 4.765625 -32.96875 4.679688 -32.882812 4.589844 -32.75 C 4.5 -32.574219 4.5 -32.441406 4.5 -32.265625 C 4.5 -32.042969 4.546875 -31.910156 4.632812 -31.824219 C 4.722656 -31.734375 4.8125 -31.644531 4.988281 -31.644531 C 5.121094 -31.601562 5.253906 -31.558594 5.339844 -31.558594 L 5.207031 -30.941406 C 5.121094 -30.320312 5.03125 -29.527344 4.855469 -28.601562 L 4.457031 -26.21875 C 4.191406 -24.363281 4.0625 -22.199219 4.0625 -19.773438 C 4.0625 -17.523438 4.148438 -15.269531 4.324219 -13.019531 C 4.414062 -11.695312 4.679688 -9.886719 5.164062 -7.503906 L 5.339844 -6.621094 C 5.5625 -5.472656 6.136719 -4.589844 7.0625 -3.972656 Z M 10.945312 -21.890625 C 10.945312 -23.878906 10.988281 -26.921875 11.121094 -30.984375 C 11.871094 -30.761719 12.667969 -30.234375 13.503906 -29.351562 C 14.34375 -28.46875 15.09375 -27.277344 15.757812 -25.820312 C 16.417969 -24.363281 16.90625 -22.730469 17.167969 -20.875 C 17.214844 -20.523438 17.257812 -19.992188 17.257812 -19.289062 C 17.257812 -17.699219 16.992188 -16.152344 16.464844 -14.566406 C 15.933594 -12.976562 15.226562 -11.5625 14.433594 -10.371094 C 13.636719 -9.136719 12.84375 -8.296875 12.09375 -7.769531 C 11.300781 -11.609375 10.945312 -16.332031 10.945312 -21.890625 Z M 10.945312 -21.890625 "/></g></g></g><g fill="#000000" fill-opacity="1"><g transform="translate(92.956618, 38.554734)"><g><path d="M 14.34375 -29.878906 L 8.164062 -29.878906 C 7.371094 -29.703125 6.355469 -29.484375 5.164062 -29.308594 C 4.589844 -29.21875 4.238281 -28.867188 4.0625 -28.292969 C 3.707031 -26.921875 3.53125 -26.039062 3.488281 -25.597656 C 2.867188 -20.125 2.515625 -16.023438 2.339844 -13.328125 C 2.25 -12.050781 2.207031 -10.769531 2.207031 -9.488281 C 2.207031 -8.785156 2.207031 -7.679688 2.296875 -6.222656 C 2.382812 -4.765625 2.78125 -3.664062 3.441406 -2.867188 C 4.105469 -2.074219 5.074219 -1.542969 6.398438 -1.28125 C 6.929688 -1.191406 7.460938 -1.148438 7.988281 -1.148438 C 8.695312 -1.101562 9.753906 -1.101562 11.167969 -1.101562 C 12.183594 -1.101562 12.933594 -1.101562 13.460938 -1.148438 C 14.257812 -1.148438 15.449219 -1.324219 17.125 -1.632812 C 17.390625 -1.675781 17.65625 -1.808594 17.832031 -2.03125 C 18.007812 -2.207031 18.097656 -2.425781 18.097656 -2.691406 C 18.097656 -3.046875 17.964844 -3.265625 17.785156 -3.355469 C 17.566406 -3.441406 17.257812 -3.53125 16.859375 -3.574219 C 16.464844 -3.574219 16.109375 -3.574219 15.84375 -3.574219 C 15.582031 -3.574219 15.316406 -3.574219 15.140625 -3.574219 L 14.257812 -3.574219 C 13.816406 -3.574219 13.460938 -3.488281 13.195312 -3.398438 C 12.933594 -3.265625 12.667969 -3.222656 12.3125 -3.222656 C 11.695312 -3.222656 11.253906 -3.398438 10.988281 -3.796875 C 10.328125 -4.589844 9.976562 -5.296875 9.929688 -5.914062 C 9.753906 -7.503906 9.578125 -9.929688 9.488281 -13.195312 C 9.488281 -13.242188 9.535156 -13.328125 9.621094 -13.417969 C 9.710938 -13.503906 9.84375 -13.550781 9.929688 -13.550781 C 10.636719 -13.636719 11.253906 -13.683594 11.785156 -13.726562 C 12.3125 -13.726562 12.753906 -13.769531 13.109375 -13.816406 L 14.699219 -13.945312 C 14.960938 -13.945312 15.140625 -14.035156 15.269531 -14.125 C 15.359375 -14.210938 15.449219 -14.386719 15.449219 -14.699219 C 15.449219 -15.09375 15.226562 -15.359375 14.875 -15.449219 L 13.816406 -15.625 L 10.019531 -15.625 C 9.753906 -15.625 9.578125 -15.667969 9.488281 -15.800781 C 9.402344 -15.890625 9.3125 -16.109375 9.3125 -16.417969 C 9.003906 -21.097656 8.785156 -24.761719 8.605469 -27.363281 C 8.519531 -27.804688 8.695312 -28.070312 9.09375 -28.070312 L 9.222656 -28.070312 C 9.488281 -28.070312 9.753906 -28.070312 10.019531 -28.113281 C 10.285156 -28.113281 10.59375 -28.160156 10.859375 -28.160156 C 11.519531 -28.160156 12.050781 -27.9375 12.492188 -27.585938 L 12.667969 -27.585938 L 15.183594 -27.542969 C 15.710938 -27.542969 16.152344 -27.542969 16.464844 -27.585938 C 16.859375 -27.585938 17.257812 -27.804688 17.699219 -28.292969 C 17.785156 -28.378906 17.875 -28.511719 17.875 -28.6875 C 17.875 -28.867188 17.785156 -29.042969 17.609375 -29.21875 C 17.433594 -29.394531 17.214844 -29.527344 16.949219 -29.570312 C 16.375 -29.660156 15.492188 -29.75 14.34375 -29.878906 Z M 14.34375 -29.878906 "/></g></g></g><g fill="#000000" fill-opacity="1"><g transform="translate(112.376715, 38.554734)"><g><path d="M 15.976562 -12.535156 L 15.84375 -12.535156 L 15.226562 -13.683594 L 13.503906 -16.90625 L 11.609375 -20.082031 C 10.636719 -21.582031 9.929688 -22.554688 9.535156 -23.082031 C 9.179688 -23.523438 8.386719 -24.453125 7.195312 -25.820312 C 7.105469 -25.910156 6.972656 -25.953125 6.886719 -25.953125 C 6.222656 -25.953125 5.738281 -25.953125 5.429688 -25.996094 C 4.457031 -25.996094 3.707031 -25.996094 3.265625 -26.039062 C 2.914062 -26.039062 2.648438 -25.953125 2.558594 -25.820312 C 2.472656 -25.644531 2.382812 -25.421875 2.382812 -25.113281 C 2.296875 -23.746094 2.296875 -22.730469 2.296875 -22.113281 C 2.207031 -14.609375 2.207031 -8.960938 2.207031 -5.164062 C 2.207031 -3.398438 2.296875 -1.941406 2.558594 -0.839844 C 2.605469 -0.53125 2.691406 -0.308594 2.824219 -0.175781 C 2.957031 -0.0429688 3.179688 0 3.488281 0 C 4.015625 0 4.5 0 4.941406 0 C 5.382812 0 5.738281 0 6.046875 0 C 6.3125 0 6.488281 0 6.664062 -0.0898438 C 6.839844 -0.132812 6.972656 -0.265625 7.0625 -0.484375 C 7.503906 -1.632812 7.769531 -2.867188 7.855469 -4.148438 L 8.164062 -15.933594 L 8.210938 -16.375 C 8.210938 -16.285156 8.253906 -16.242188 8.296875 -16.242188 C 8.34375 -16.199219 8.386719 -16.152344 8.386719 -16.152344 L 9.796875 -13.152344 C 11.300781 -9.84375 12.269531 -7.855469 12.625 -7.148438 C 13.550781 -5.121094 14.519531 -3.179688 15.535156 -1.324219 C 15.582031 -1.191406 15.710938 -1.058594 15.890625 -0.972656 C 16.066406 -0.882812 16.242188 -0.839844 16.417969 -0.839844 C 16.773438 -0.792969 17.257812 -0.792969 17.917969 -0.792969 L 19.421875 -0.792969 C 19.597656 -0.792969 19.816406 -0.75 20.125 -0.75 C 20.433594 -0.75 20.65625 -0.792969 20.746094 -0.972656 C 20.832031 -1.101562 20.875 -1.632812 20.921875 -2.515625 L 20.875 -9.3125 L 20.789062 -25.070312 C 20.789062 -25.6875 20.746094 -26.21875 20.699219 -26.570312 C 20.613281 -26.921875 20.480469 -27.277344 20.214844 -27.628906 C 20.039062 -27.851562 19.816406 -27.984375 19.640625 -27.984375 C 19.023438 -27.984375 18.183594 -27.984375 17.082031 -27.9375 C 16.949219 -27.9375 16.816406 -27.894531 16.726562 -27.851562 C 16.59375 -27.761719 16.507812 -27.71875 16.507812 -27.628906 C 16.464844 -27.542969 16.375 -27.230469 16.242188 -26.789062 C 16.066406 -26.351562 16.023438 -25.910156 16.023438 -25.511719 C 15.976562 -23.613281 15.976562 -20.746094 15.976562 -16.949219 Z M 15.976562 -12.535156 "/></g></g></g><g fill="#000000" fill-opacity="1"><g transform="translate(134.621555, 38.554734)"><g/></g></g><g fill="#000000" fill-opacity="1"><g transform="translate(146.097088, 38.554734)"><g><path d="M 11.429688 -0.351562 C 11.828125 -0.398438 12.183594 -0.441406 12.445312 -0.53125 C 12.667969 -0.53125 12.976562 -0.574219 13.328125 -0.660156 C 13.683594 -0.75 13.992188 -0.792969 14.257812 -0.839844 C 16.375 -1.015625 17.875 -2.339844 18.847656 -4.855469 C 19.289062 -6.003906 19.683594 -7.328125 20.039062 -8.828125 C 20.964844 -12.800781 21.449219 -16.417969 21.449219 -19.683594 C 21.449219 -22.070312 21.1875 -24.363281 20.699219 -26.570312 C 20.125 -29.21875 19.289062 -31.292969 18.226562 -32.835938 C 17.257812 -34.160156 16.199219 -34.867188 14.960938 -34.867188 C 14.652344 -34.867188 14.34375 -34.824219 14.035156 -34.734375 C 13.375 -34.558594 12.359375 -34.382812 11.035156 -34.207031 C 10.945312 -34.160156 10.859375 -34.207031 10.769531 -34.292969 C 10.679688 -34.382812 10.59375 -34.472656 10.546875 -34.515625 C 10.503906 -34.515625 10.417969 -34.601562 10.328125 -34.691406 C 10.195312 -34.78125 10.105469 -34.824219 10.019531 -34.824219 L 9.976562 -34.824219 C 9.445312 -34.78125 8.871094 -34.691406 8.296875 -34.558594 L 7.195312 -34.382812 C 6.222656 -34.207031 5.605469 -33.675781 5.253906 -32.792969 C 5.164062 -32.617188 4.941406 -32 4.5 -30.984375 C 4.0625 -29.925781 3.707031 -28.910156 3.488281 -27.894531 C 2.605469 -23.921875 2.207031 -19.992188 2.207031 -16.109375 C 2.207031 -14.476562 2.25 -13.019531 2.382812 -11.742188 C 2.605469 -8.519531 3.398438 -5.648438 4.765625 -3.179688 C 5.914062 -1.058594 7.371094 0 9.09375 0 C 9.535156 0 9.976562 -0.0429688 10.371094 -0.175781 C 10.636719 -0.21875 10.988281 -0.265625 11.429688 -0.351562 Z M 11.429688 -0.351562 "/></g></g></g><g fill="#000000" fill-opacity="1"><g transform="translate(168.871594, 38.554734)"><g><path d="M 15.535156 -12.886719 C 15.535156 -12.800781 15.582031 -12.710938 15.582031 -12.625 L 15.535156 -4.589844 C 15.492188 -3.179688 14.828125 -1.984375 13.550781 -1.015625 C 13.242188 -0.75 13.019531 -0.617188 12.84375 -0.617188 C 12.753906 -0.617188 12.625 -0.660156 12.492188 -0.792969 C 12.359375 -0.882812 12.226562 -1.058594 12.09375 -1.234375 C 11.300781 -2.117188 10.59375 -3.355469 9.976562 -5.03125 C 9.488281 -6.398438 9.179688 -7.328125 9.09375 -7.769531 C 9.003906 -7.945312 8.960938 -8.121094 8.871094 -8.210938 C 8.785156 -8.296875 8.652344 -8.34375 8.472656 -8.34375 C 7.8125 -8.296875 6.839844 -8.296875 5.605469 -8.296875 C 5.253906 -8.296875 4.988281 -8.210938 4.898438 -8.121094 C 4.765625 -7.988281 4.679688 -7.769531 4.679688 -7.414062 C 4.679688 -7.148438 4.679688 -6.929688 4.765625 -6.839844 L 5.207031 -5.5625 C 5.738281 -3.75 6.3125 -2.25 6.839844 -1.015625 C 7.148438 -0.265625 7.636719 0.308594 8.253906 0.707031 C 8.871094 1.101562 9.578125 1.28125 10.460938 1.28125 C 11.429688 1.324219 12.933594 1.324219 14.917969 1.324219 C 16.59375 1.28125 18.050781 0.707031 19.289062 -0.351562 C 20.523438 -1.414062 21.140625 -2.867188 21.230469 -4.722656 C 21.273438 -7.0625 21.316406 -8.828125 21.40625 -9.976562 C 21.40625 -10.8125 21.449219 -12.3125 21.539062 -14.476562 C 21.582031 -16.640625 21.628906 -18.582031 21.628906 -20.304688 C 21.628906 -21.054688 21.582031 -21.890625 21.539062 -22.863281 C 21.449219 -23.832031 21.40625 -24.496094 21.40625 -24.847656 L 21.316406 -25.910156 C 21.273438 -26.261719 21.1875 -26.527344 21.054688 -26.660156 C 20.875 -26.789062 20.613281 -26.878906 20.214844 -26.878906 L 16.285156 -26.878906 C 15.933594 -26.878906 15.710938 -26.703125 15.667969 -26.351562 C 15.667969 -26.171875 15.625 -25.996094 15.625 -25.730469 C 15.582031 -25.46875 15.535156 -25.289062 15.535156 -25.113281 L 15.007812 -23.261719 C 14.875 -22.820312 14.699219 -22.246094 14.519531 -21.496094 C 14.300781 -20.699219 14.125 -20.082031 13.945312 -19.550781 C 13.242188 -17.214844 12.269531 -15.402344 11.078125 -14.125 C 10.902344 -13.945312 10.769531 -13.859375 10.679688 -13.859375 C 10.59375 -13.859375 10.460938 -13.945312 10.371094 -14.167969 C 9.136719 -16.375 8.472656 -18.40625 8.34375 -20.347656 C 8.210938 -21.671875 8.164062 -23.65625 8.164062 -26.351562 C 8.164062 -26.878906 7.902344 -27.1875 7.414062 -27.1875 C 5.695312 -27.1875 4.414062 -27.144531 3.574219 -27.144531 C 3.488281 -27.144531 3.398438 -27.101562 3.308594 -27.011719 C 3.222656 -26.921875 3.132812 -26.835938 3.089844 -26.746094 C 3 -26.570312 2.867188 -26.261719 2.78125 -25.863281 L 2.605469 -24.585938 C 2.425781 -23.523438 2.296875 -22.730469 2.25 -22.199219 C 2.207031 -21.890625 2.207031 -21.449219 2.207031 -20.832031 C 2.207031 -18.050781 2.914062 -15.582031 4.371094 -13.417969 C 5.253906 -12.003906 6.398438 -11.300781 7.8125 -11.300781 L 12.359375 -11.300781 C 12.84375 -11.300781 13.285156 -11.386719 13.726562 -11.652344 C 13.992188 -11.785156 14.566406 -12.183594 15.535156 -12.886719 Z M 15.535156 -12.886719 "/></g></g></g><g fill="#000000" fill-opacity="1"><g transform="translate(191.82263, 38.554734)"><g><path d="M 9.796875 -18.226562 L 9.710938 -18.226562 L 9.710938 -21.316406 L 9.445312 -27.054688 C 9.355469 -27.585938 9.09375 -27.851562 8.652344 -27.851562 L 7.636719 -27.894531 C 6.664062 -27.9375 6.003906 -27.984375 5.648438 -27.984375 L 4.679688 -27.9375 C 4.0625 -27.894531 3.621094 -27.851562 3.398438 -27.761719 C 3.179688 -27.671875 3.046875 -27.542969 2.957031 -27.320312 C 2.867188 -27.101562 2.824219 -26.660156 2.78125 -26.039062 C 2.382812 -22.070312 2.207031 -18.359375 2.207031 -15.007812 C 2.207031 -13.328125 2.25 -11.652344 2.339844 -9.976562 C 2.425781 -8.785156 2.515625 -7.722656 2.691406 -6.839844 C 2.867188 -5.957031 3.132812 -5.121094 3.574219 -4.324219 C 4.988281 -1.414062 7.148438 0 9.976562 0 L 13.242188 0 C 14.035156 0 14.609375 0 15.007812 -0.0429688 C 15.800781 -0.0898438 16.507812 -0.265625 17.035156 -0.53125 C 18.890625 -1.5 20.214844 -3.046875 21.007812 -5.207031 C 21.9375 -7.679688 22.421875 -10.460938 22.421875 -13.550781 C 22.421875 -15.050781 22.378906 -16.726562 22.332031 -18.582031 C 22.246094 -20.433594 22.199219 -21.757812 22.199219 -22.554688 L 22.113281 -24.714844 C 22.070312 -25.46875 21.980469 -26.039062 21.890625 -26.480469 C 21.804688 -26.921875 21.539062 -27.320312 21.097656 -27.671875 C 20.65625 -28.027344 20.257812 -28.246094 19.90625 -28.246094 L 17.742188 -28.246094 C 17.347656 -28.246094 17.082031 -28.203125 16.949219 -28.160156 C 16.773438 -28.070312 16.726562 -27.894531 16.726562 -27.585938 L 16.726562 -27.496094 L 16.683594 -27.363281 C 16.464844 -27.144531 16.332031 -26.921875 16.332031 -26.746094 C 16.285156 -26.527344 16.285156 -26.21875 16.285156 -25.777344 C 16.507812 -20.964844 16.683594 -17.433594 16.773438 -15.226562 C 16.859375 -12.402344 16.59375 -9.886719 16.066406 -7.636719 C 15.535156 -5.515625 14.566406 -3.882812 13.152344 -2.78125 C 12.976562 -2.605469 12.84375 -2.558594 12.753906 -2.558594 C 12.667969 -2.558594 12.578125 -2.605469 12.492188 -2.691406 C 11.609375 -3.574219 10.988281 -4.457031 10.636719 -5.429688 C 10.328125 -6.222656 10.105469 -7.019531 10.019531 -7.855469 C 9.929688 -8.695312 9.84375 -9.710938 9.84375 -10.859375 C 9.796875 -11.652344 9.796875 -12.886719 9.796875 -14.566406 Z M 9.796875 -18.226562 "/></g></g></g><g fill="#000000" fill-opacity="1"><g transform="translate(215.568136, 38.554734)"><g><path d="M 15.976562 -12.535156 L 15.84375 -12.535156 L 15.226562 -13.683594 L 13.503906 -16.90625 L 11.609375 -20.082031 C 10.636719 -21.582031 9.929688 -22.554688 9.535156 -23.082031 C 9.179688 -23.523438 8.386719 -24.453125 7.195312 -25.820312 C 7.105469 -25.910156 6.972656 -25.953125 6.886719 -25.953125 C 6.222656 -25.953125 5.738281 -25.953125 5.429688 -25.996094 C 4.457031 -25.996094 3.707031 -25.996094 3.265625 -26.039062 C 2.914062 -26.039062 2.648438 -25.953125 2.558594 -25.820312 C 2.472656 -25.644531 2.382812 -25.421875 2.382812 -25.113281 C 2.296875 -23.746094 2.296875 -22.730469 2.296875 -22.113281 C 2.207031 -14.609375 2.207031 -8.960938 2.207031 -5.164062 C 2.207031 -3.398438 2.296875 -1.941406 2.558594 -0.839844 C 2.605469 -0.53125 2.691406 -0.308594 2.824219 -0.175781 C 2.957031 -0.0429688 3.179688 0 3.488281 0 C 4.015625 0 4.5 0 4.941406 0 C 5.382812 0 5.738281 0 6.046875 0 C 6.3125 0 6.488281 0 6.664062 -0.0898438 C 6.839844 -0.132812 6.972656 -0.265625 7.0625 -0.484375 C 7.503906 -1.632812 7.769531 -2.867188 7.855469 -4.148438 L 8.164062 -15.933594 L 8.210938 -16.375 C 8.210938 -16.285156 8.253906 -16.242188 8.296875 -16.242188 C 8.34375 -16.199219 8.386719 -16.152344 8.386719 -16.152344 L 9.796875 -13.152344 C 11.300781 -9.84375 12.269531 -7.855469 12.625 -7.148438 C 13.550781 -5.121094 14.519531 -3.179688 15.535156 -1.324219 C 15.582031 -1.191406 15.710938 -1.058594 15.890625 -0.972656 C 16.066406 -0.882812 16.242188 -0.839844 16.417969 -0.839844 C 16.773438 -0.792969 17.257812 -0.792969 17.917969 -0.792969 L 19.421875 -0.792969 C 19.597656 -0.792969 19.816406 -0.75 20.125 -0.75 C 20.433594 -0.75 20.65625 -0.792969 20.746094 -0.972656 C 20.832031 -1.101562 20.875 -1.632812 20.921875 -2.515625 L 20.875 -9.3125 L 20.789062 -25.070312 C 20.789062 -25.6875 20.746094 -26.21875 20.699219 -26.570312 C 20.613281 -26.921875 20.480469 -27.277344 20.214844 -27.628906 C 20.039062 -27.851562 19.816406 -27.984375 19.640625 -27.984375 C 19.023438 -27.984375 18.183594 -27.984375 17.082031 -27.9375 C 16.949219 -27.9375 16.816406 -27.894531 16.726562 -27.851562 C 16.59375 -27.761719 16.507812 -27.71875 16.507812 -27.628906 C 16.464844 -27.542969 16.375 -27.230469 16.242188 -26.789062 C 16.066406 -26.351562 16.023438 -25.910156 16.023438 -25.511719 C 15.976562 -23.613281 15.976562 -20.746094 15.976562 -16.949219 Z M 15.976562 -12.535156 "/></g></g></g><g fill="#000000" fill-opacity="1"><g transform="translate(237.812985, 38.554734)"><g><path d="M 9.796875 -18.226562 L 9.710938 -18.226562 L 9.710938 -21.316406 L 9.445312 -27.054688 C 9.355469 -27.585938 9.09375 -27.851562 8.652344 -27.851562 L 7.636719 -27.894531 C 6.664062 -27.9375 6.003906 -27.984375 5.648438 -27.984375 L 4.679688 -27.9375 C 4.0625 -27.894531 3.621094 -27.851562 3.398438 -27.761719 C 3.179688 -27.671875 3.046875 -27.542969 2.957031 -27.320312 C 2.867188 -27.101562 2.824219 -26.660156 2.78125 -26.039062 C 2.382812 -22.070312 2.207031 -18.359375 2.207031 -15.007812 C 2.207031 -13.328125 2.25 -11.652344 2.339844 -9.976562 C 2.425781 -8.785156 2.515625 -7.722656 2.691406 -6.839844 C 2.867188 -5.957031 3.132812 -5.121094 3.574219 -4.324219 C 4.988281 -1.414062 7.148438 0 9.976562 0 L 13.242188 0 C 14.035156 0 14.609375 0 15.007812 -0.0429688 C 15.800781 -0.0898438 16.507812 -0.265625 17.035156 -0.53125 C 18.890625 -1.5 20.214844 -3.046875 21.007812 -5.207031 C 21.9375 -7.679688 22.421875 -10.460938 22.421875 -13.550781 C 22.421875 -15.050781 22.378906 -16.726562 22.332031 -18.582031 C 22.246094 -20.433594 22.199219 -21.757812 22.199219 -22.554688 L 22.113281 -24.714844 C 22.070312 -25.46875 21.980469 -26.039062 21.890625 -26.480469 C 21.804688 -26.921875 21.539062 -27.320312 21.097656 -27.671875 C 20.65625 -28.027344 20.257812 -28.246094 19.90625 -28.246094 L 17.742188 -28.246094 C 17.347656 -28.246094 17.082031 -28.203125 16.949219 -28.160156 C 16.773438 -28.070312 16.726562 -27.894531 16.726562 -27.585938 L 16.726562 -27.496094 L 16.683594 -27.363281 C 16.464844 -27.144531 16.332031 -26.921875 16.332031 -26.746094 C 16.285156 -26.527344 16.285156 -26.21875 16.285156 -25.777344 C 16.507812 -20.964844 16.683594 -17.433594 16.773438 -15.226562 C 16.859375 -12.402344 16.59375 -9.886719 16.066406 -7.636719 C 15.535156 -5.515625 14.566406 -3.882812 13.152344 -2.78125 C 12.976562 -2.605469 12.84375 -2.558594 12.753906 -2.558594 C 12.667969 -2.558594 12.578125 -2.605469 12.492188 -2.691406 C 11.609375 -3.574219 10.988281 -4.457031 10.636719 -5.429688 C 10.328125 -6.222656 10.105469 -7.019531 10.019531 -7.855469 C 9.929688 -8.695312 9.84375 -9.710938 9.84375 -10.859375 C 9.796875 -11.652344 9.796875 -12.886719 9.796875 -14.566406 Z M 9.796875 -18.226562 "/></g></g></g></svg>